<svg xmlns:xlink="http://www.w3.org/1999/xlink" width="1055" height="271" viewBox="0 0 1055 271" fill="none" xmlns="http://www.w3.org/2000/svg">
<path d="M316.477 0C316.636 0 316.795 0 316.953 0C317.276 0.193585 317.573 0.436807 317.921 0.580756C334.965 7.64911 352.014 14.7125 369.058 21.7759C371.027 22.5949 372.992 23.4238 375.055 24.2875C375.055 24.7492 375.055 25.176 375.055 25.6079C375.035 94.3109 375.01 163.014 375.01 231.717C375.01 232.645 374.713 233.117 373.909 233.548C355.134 243.645 336.368 253.766 317.603 263.882C317.296 264.051 316.978 264.2 316.715 264.329C316.596 264.289 316.556 264.274 316.522 264.259C316.487 264.244 316.452 264.224 316.418 264.204C316.383 264.185 316.353 264.16 316.318 264.14C316.254 264.095 316.184 264.051 316.12 264.006C229.491 200.674 142.856 137.341 56.2218 74.0092C56.0928 73.9149 55.9639 73.8256 55.8349 73.7313C55.7704 73.6866 55.7109 73.6369 55.6464 73.5873C55.6166 73.5625 55.5819 73.5426 55.5472 73.5228C55.4777 73.4831 55.4132 73.4384 55.3438 73.4036C55.3091 73.3838 55.2744 73.3639 55.2347 73.354C55.1999 73.3441 55.1553 73.3441 55.1206 73.3441C55.0859 73.3441 55.0462 73.359 55.0115 73.3639C54.9817 73.3887 54.937 73.4136 54.9271 73.4483C54.8924 73.5575 54.8378 73.6717 54.8378 73.7858C54.813 118.911 54.7882 164.041 54.7684 209.167C54.7684 209.405 54.8081 209.638 54.8329 209.876C54.8378 209.911 54.8626 209.951 54.8874 209.976C54.9123 210.006 54.9519 210.02 55.1206 210.14C73.7521 200.758 92.448 191.337 111.357 181.816C99.2042 172.842 87.2048 163.982 75.2055 155.126C75.2303 155.067 75.26 155.007 75.2848 154.943C103.674 155.553 132.057 156.164 160.53 156.774C160.555 157.355 160.6 157.822 160.6 158.293C160.605 177.741 160.595 197.189 160.625 216.637C160.625 217.689 160.327 218.245 159.355 218.722C145.679 225.378 132.018 232.074 118.361 238.775C97.6615 248.931 76.9714 259.102 56.2764 269.267C55.82 269.491 55.4033 269.799 54.9668 270.067C54.8081 270.067 54.6493 270.067 54.4906 270.067C54.1831 269.789 53.9152 269.446 53.568 269.243C36.0724 258.938 18.5719 248.648 1.07145 238.363C0.739102 238.17 0.357153 238.065 0 237.917C0 169.645 0 101.374 0 33.1031C0.441481 32.979 0.912721 32.9244 1.31452 32.7259C5.46146 30.651 9.59352 28.5563 13.7305 26.4616C26.9551 19.7755 40.1896 13.1043 53.3943 6.3784C54.4212 5.8572 55.0958 5.90188 56.0333 6.57694C83.4795 26.283 110.955 45.9542 138.422 65.6354C166.116 85.4754 193.795 105.33 221.499 125.16C247.006 143.417 272.537 161.649 298.054 179.896C303.892 184.07 309.726 188.254 315.569 192.424C315.892 192.657 316.174 193.054 316.671 192.935C316.924 190.384 316.745 47.1604 316.477 46.2223C316.105 46.3463 315.733 46.4556 315.371 46.5995C310.624 48.4758 305.842 50.2875 301.134 52.2532C268.023 66.0921 234.927 79.9607 201.826 93.8195C201.474 93.9684 201.112 94.0925 200.755 94.2265C200.958 93.7797 201.236 93.4522 201.533 93.1494C206.246 88.27 210.963 83.3956 215.681 78.5213C237.055 56.4227 258.43 34.3242 279.795 12.2157C280.36 11.63 280.98 11.2329 281.769 10.9897C292.999 7.51012 304.22 4.00573 315.44 0.496373C315.802 0.377244 316.135 0.163803 316.477 0Z" fill="#00AEF0"/>
<path d="M478.43 119.03C474.09 120.529 465.905 122.515 457.731 122.515C446.401 122.515 438.236 119.675 432.531 114.19C426.842 108.8 423.727 100.724 423.766 91.6055C423.841 70.9713 438.866 59.2321 459.169 59.2321C467.175 59.2321 473.336 60.751 476.402 62.2103L473.47 73.4482C470.032 71.964 465.861 70.8174 459.045 70.8174C447.358 70.8174 438.474 77.3894 438.474 90.8858C438.474 103.697 446.555 111.197 458.028 111.197C461.198 111.197 463.767 110.83 464.888 110.324V97.289H455.305V86.344H478.435V119.03H478.43Z" fill="#263238"/>
<path d="M546.096 90.2557C546.096 110.607 533.819 122.907 515.693 122.907C497.31 122.907 486.491 108.989 486.491 91.2981C486.491 72.7536 498.411 58.8452 516.665 58.8452C535.694 58.8452 546.096 73.0911 546.096 90.2557ZM501.308 91.035C501.308 103.186 507.032 111.754 516.383 111.754C525.857 111.754 531.274 102.794 531.274 90.7322C531.274 79.5489 525.991 69.9987 516.348 69.9987C506.859 69.9987 501.308 78.9682 501.308 91.035Z" fill="#263238"/>
<path d="M573.944 60.4879C578.27 59.7632 584.361 59.1775 592.923 59.1775C601.549 59.1775 607.789 60.8552 611.951 64.2058C615.934 67.2982 618.543 72.4902 618.543 78.5956C618.543 84.696 616.569 89.8931 612.864 93.328C608.062 97.8449 600.899 99.9297 592.665 99.9297C590.8 99.9297 589.138 99.8056 587.868 99.6071V121.889H573.934V60.4879H573.944ZM587.878 88.7117C589.044 88.9797 590.492 89.084 592.546 89.084C600.011 89.084 604.624 85.3016 604.624 78.9977C604.624 73.2695 600.706 69.8644 593.617 69.8644C590.839 69.8644 588.9 70.0927 587.878 70.331V88.7117Z" fill="#263238"/>
<path d="M627.547 59.6638H641.605V110.1H666.348V121.894H627.547V59.6638Z" fill="#263238"/>
<path d="M689.106 105.916L684.716 121.894H670.177L689.156 59.6638H707.559L726.92 121.894H711.77L706.989 105.916H689.106ZM704.905 95.4325L701.031 82.2091C699.965 78.5309 698.858 73.8651 697.906 70.2266H697.712C696.8 73.8849 695.862 78.6104 694.865 82.224L691.145 95.4325H704.905V95.4325Z" fill="#263238"/>
<path d="M747.223 71.4775H730.441V59.6638H778.305V71.4775H761.285V121.894H747.228V71.4775H747.223Z" fill="#263238"/>
<path d="M785.78 59.6638H823.762V71.1896H799.838V85.4554H822.209V96.8719H799.838V121.894H785.78V59.6638Z" fill="#263238"/>
<path d="M891.274 90.1563C891.274 110.572 878.957 122.907 860.777 122.907C842.339 122.907 831.486 108.949 831.486 91.1986C831.486 72.5946 843.446 58.6465 861.755 58.6465C880.847 58.6514 891.274 72.942 891.274 90.1563ZM846.352 90.9356C846.352 103.126 852.092 111.719 861.477 111.719C870.981 111.719 876.418 102.729 876.418 90.6328C876.418 79.4147 871.12 69.8347 861.447 69.8347C851.918 69.8347 846.352 78.834 846.352 90.9356Z" fill="#263238"/>
<path d="M900.555 60.5177C905.069 59.7533 911.761 59.1775 919.241 59.1775C928.468 59.1775 934.926 60.5872 939.366 64.1065C943.076 67.0549 945.12 71.428 945.12 77.1512C945.12 85.0336 939.49 90.5234 934.143 92.4444V92.7373C938.458 94.4795 940.884 98.6044 942.451 104.323C944.376 111.366 946.251 119.477 947.471 121.884H933.076C932.119 120.082 930.571 115.084 928.8 107.38C927.069 99.6021 924.46 97.5223 918.671 97.4528H914.489V121.884H900.555V60.5177V60.5177ZM914.489 87.2772H919.995C926.97 87.2772 931.147 83.7182 931.147 78.3127C931.147 72.6143 927.243 69.7006 920.824 69.6659C917.456 69.6659 915.486 69.8843 914.494 70.1374V87.2772H914.489Z" fill="#263238"/>
<path d="M1007.83 98.093C1007.54 90.5531 1007.25 81.5787 1007.28 72.4553H1007.03C1005.05 80.4221 1002.43 89.2625 1000.1 96.6089L992.482 120.872H981.554L974.853 96.8223C972.849 89.4958 970.78 80.6554 969.243 72.4553H969.049C968.742 80.9185 968.394 90.5233 968.022 98.2767L966.862 121.894H953.855L957.834 59.6638H976.579L982.646 80.4618C984.61 87.5947 986.53 95.4176 987.919 102.709H988.216C989.918 95.5069 992.021 87.2969 994.134 80.3675L1000.74 59.6638H1019.13L1022.47 121.894H1008.81L1007.83 98.093Z" fill="#263238"/>
<path d="M430.218 175.503C432.629 175.016 436.086 174.713 439.355 174.713C444.4 174.713 447.718 175.671 450.01 177.741C451.826 179.354 452.897 181.856 452.897 184.735C452.897 189.57 449.812 192.786 445.967 194.112V194.246C448.77 195.228 450.466 197.884 451.359 201.696C452.57 206.839 453.438 210.358 454.187 211.797H449.261C448.681 210.73 447.852 207.593 446.845 202.987C445.754 197.949 443.765 195.993 439.464 195.849H434.97V211.797H430.223V175.503H430.218ZM434.965 192.255H439.816C444.901 192.255 448.12 189.485 448.12 185.266C448.12 180.486 444.673 178.411 439.667 178.401C437.366 178.401 435.773 178.61 434.965 178.818V192.255Z" fill="#263238"/>
<path d="M462.124 199.463C462.218 205.955 466.335 208.631 471.157 208.631C474.59 208.631 476.693 208.015 478.464 207.28L479.307 210.69C477.63 211.46 474.694 212.373 470.502 212.373C462.392 212.373 457.516 206.968 457.516 199.046C457.516 191.044 462.228 184.795 469.932 184.795C478.543 184.795 480.79 192.354 480.79 197.214C480.79 198.222 480.731 198.941 480.626 199.467H462.124V199.463ZM476.167 196.008C476.217 192.98 474.927 188.235 469.55 188.235C464.649 188.235 462.565 192.667 462.183 196.008H476.167Z" fill="#263238"/>
<path d="M505.587 210.839C504.327 211.46 501.564 212.368 498.017 212.368C490.061 212.368 484.847 206.948 484.847 198.877C484.847 190.736 490.393 184.8 499.024 184.8C501.852 184.8 504.402 185.519 505.696 186.204L504.63 189.892C503.454 189.267 501.658 188.622 499.019 188.622C492.997 188.622 489.699 193.139 489.709 198.624C489.709 204.744 493.637 208.506 498.9 208.506C501.589 208.506 503.419 207.826 504.774 207.236L505.587 210.839Z" fill="#263238"/>
<path d="M511.207 193.616C511.207 190.498 511.128 187.843 510.989 185.391H515.195L515.379 190.573H515.547C516.778 187.029 519.689 184.79 522.894 184.79C523.415 184.79 523.792 184.825 524.228 184.924V189.441C523.737 189.337 523.256 189.302 522.596 189.302C519.213 189.302 516.822 191.853 516.172 195.447C516.048 196.122 515.979 196.907 515.979 197.691V211.798H511.202V193.616H511.207Z" fill="#263238"/>
<path d="M551.124 204.57C551.124 207.34 551.213 209.708 551.342 211.797H547.101L546.848 207.479H546.714C545.499 209.603 542.706 212.398 537.979 212.398C533.852 212.398 528.891 210.08 528.891 200.828V185.395H533.668V199.984C533.668 205.012 535.236 208.437 539.566 208.437C542.78 208.437 545.028 206.183 545.915 204.029C546.163 203.339 546.352 202.48 546.352 201.567V185.395H551.129V204.57H551.124Z" fill="#263238"/>
<path d="M564.487 177.925C564.492 179.558 563.342 180.908 561.437 180.908C559.701 180.908 558.535 179.558 558.54 177.925C558.535 176.277 559.765 174.937 561.526 174.937C563.312 174.937 564.477 176.252 564.487 177.925ZM559.125 211.797V185.39H563.902V211.797H559.125Z" fill="#263238"/>
<path d="M577.652 177.791V185.39H584.547V189.029H577.652V203.26C577.652 206.551 578.6 208.407 581.283 208.407C582.528 208.407 583.431 208.253 584.066 208.06L584.284 211.708C583.352 212.076 581.864 212.368 579.999 212.368C577.791 212.368 575.961 211.639 574.82 210.333C573.495 208.879 572.96 206.546 572.96 203.444V189.024H568.872V185.386H572.96V179.022L577.652 177.791Z" fill="#263238"/>
<path d="M589.954 192.523C589.954 189.768 589.865 187.579 589.736 185.39H593.908L594.161 189.639H594.295C595.763 187.128 598.223 184.79 602.623 184.79C606.2 184.79 608.933 186.969 610.064 190.081H610.173C611.016 188.577 612.058 187.436 613.149 186.641C614.746 185.44 616.468 184.785 618.953 184.785C622.475 184.785 627.664 187.058 627.664 196.241V211.793H622.981V196.857C622.981 191.739 621.096 188.711 617.256 188.711C614.503 188.711 612.395 190.712 611.547 193.035C611.319 193.73 611.155 194.588 611.155 195.442V211.788H606.472V195.943C606.472 191.739 604.612 188.711 600.991 188.711C598 188.711 595.807 191.099 595.009 193.506C594.771 194.211 594.647 195.05 594.647 195.874V211.793H589.964V192.523H589.954Z" fill="#263238"/>
<path d="M638.145 199.463C638.24 205.955 642.357 208.631 647.178 208.631C650.611 208.631 652.714 208.015 654.485 207.28L655.328 210.69C653.652 211.46 650.715 212.373 646.524 212.373C638.413 212.373 633.537 206.968 633.537 199.046C633.537 191.044 638.25 184.795 645.953 184.795C654.564 184.795 656.812 192.354 656.812 197.214C656.812 198.222 656.752 198.941 656.648 199.467H638.145V199.463ZM652.193 196.008C652.243 192.98 650.953 188.235 645.576 188.235C640.675 188.235 638.592 192.667 638.21 196.008H652.193Z" fill="#263238"/>
<path d="M662.798 192.524C662.798 189.769 662.709 187.58 662.58 185.391H666.821L667.084 189.734H667.218C668.518 187.252 671.583 184.79 675.944 184.79C679.57 184.79 685.244 186.974 685.244 196.043V211.798H680.468V196.574C680.468 192.305 678.86 188.731 674.366 188.731C671.216 188.731 668.761 190.97 667.898 193.66C667.699 194.246 667.565 195.1 667.565 195.889V211.803H662.788V192.524H662.798Z" fill="#263238"/>
<path d="M698.842 177.791V185.39H705.736V189.029H698.842V203.26C698.842 206.551 699.789 208.407 702.473 208.407C703.718 208.407 704.62 208.253 705.255 208.06L705.474 211.708C704.541 212.076 703.053 212.368 701.188 212.368C698.98 212.368 697.15 211.639 696.009 210.333C694.685 208.879 694.149 206.546 694.149 203.444V189.024H690.062V185.386H694.149V179.022L698.842 177.791Z" fill="#263238"/>
<path d="M727.061 170.847V225.448H723.405V170.847H727.061Z" fill="#263238"/>
<path d="M747.458 175.503C750.37 175.026 753.823 174.713 757.568 174.713C764.374 174.713 769.25 176.327 772.469 179.335C775.758 182.313 777.678 186.577 777.678 192.503C777.678 198.539 775.793 203.419 772.39 206.819C768.912 210.244 763.228 212.125 756.105 212.125C752.702 212.125 749.879 211.991 747.463 211.713V175.503H747.458ZM752.225 208.06C753.431 208.253 755.192 208.283 757.002 208.283C767.181 208.308 772.667 202.634 772.667 192.682C772.727 183.991 767.811 178.506 757.796 178.506C755.341 178.506 753.495 178.734 752.23 178.992V208.06H752.225Z" fill="#263238"/>
<path d="M786.344 199.463C786.438 205.955 790.556 208.631 795.377 208.631C798.81 208.631 800.913 208.015 802.684 207.28L803.527 210.69C801.851 211.46 798.914 212.373 794.722 212.373C786.612 212.373 781.736 206.968 781.736 199.046C781.736 191.044 786.448 184.795 794.152 184.795C802.763 184.795 805.01 192.354 805.01 197.214C805.01 198.222 804.951 198.941 804.847 199.467H786.344V199.463ZM800.387 196.008C800.437 192.98 799.147 188.235 793.77 188.235C788.869 188.235 786.786 192.667 786.404 196.008H800.387Z" fill="#263238"/>
<path d="M812.843 185.391L818.016 200.197C818.904 202.645 819.589 204.824 820.179 207.018H820.323C820.928 204.824 821.682 202.63 822.53 200.197L827.694 185.391H832.714L822.332 211.798H817.754L807.704 185.391H812.843Z" fill="#263238"/>
<path d="M839.922 199.463C840.016 205.955 844.133 208.631 848.955 208.631C852.388 208.631 854.491 208.015 856.262 207.28L857.105 210.69C855.428 211.46 852.492 212.373 848.3 212.373C840.19 212.373 835.314 206.968 835.314 199.046C835.314 191.044 840.026 184.795 847.73 184.795C856.341 184.795 858.588 192.354 858.588 197.214C858.588 198.222 858.529 198.941 858.425 199.467H839.922V199.463ZM853.97 196.008C854.02 192.98 852.73 188.235 847.353 188.235C842.452 188.235 840.369 192.667 839.987 196.008H853.97Z" fill="#263238"/>
<path d="M864.575 173.031H869.352V211.797H864.575V173.031Z" fill="#263238"/>
<path d="M901.337 198.341C901.337 208.119 894.556 212.398 888.212 212.398C881.054 212.398 875.528 207.176 875.528 198.797C875.528 189.962 881.332 184.795 888.633 184.795C896.223 184.79 901.337 190.299 901.337 198.341ZM880.414 198.648C880.414 204.441 883.732 208.799 888.41 208.799C893.013 208.799 896.451 204.496 896.451 198.505C896.451 194.037 894.199 188.388 888.494 188.388C882.864 188.388 880.414 193.64 880.414 198.648Z" fill="#263238"/>
<path d="M907.398 193.993C907.398 190.627 907.309 187.882 907.18 185.391H911.466L911.729 189.893H911.838C913.758 186.671 916.918 184.79 921.203 184.79C927.592 184.79 932.404 190.176 932.404 198.187C932.404 207.703 926.585 212.393 920.405 212.393C916.878 212.393 913.842 210.855 912.27 208.234H912.16V222.604H907.388V193.993H907.398ZM912.17 201.051C912.17 201.726 912.24 202.386 912.379 203.002C913.242 206.357 916.149 208.636 919.556 208.636C924.646 208.636 927.582 204.461 927.582 198.406C927.582 193.139 924.824 188.607 919.745 188.607C916.476 188.607 913.396 190.925 912.483 194.534C912.324 195.154 912.175 195.854 912.175 196.485V201.051H912.17Z" fill="#263238"/>
<path d="M938.456 192.523C938.456 189.768 938.367 187.579 938.238 185.39H942.41L942.663 189.639H942.797C944.265 187.128 946.725 184.79 951.125 184.79C954.702 184.79 957.435 186.969 958.566 190.081H958.675C959.518 188.577 960.56 187.436 961.651 186.641C963.249 185.44 964.97 184.785 967.455 184.785C970.977 184.785 976.166 187.058 976.166 196.241V211.793H971.483V196.857C971.483 191.739 969.598 188.711 965.758 188.711C963.005 188.711 960.897 190.712 960.049 193.035C959.821 193.73 959.657 194.588 959.657 195.442V211.788H954.974V195.943C954.974 191.739 953.114 188.711 949.493 188.711C946.502 188.711 944.309 191.099 943.511 193.506C943.273 194.211 943.149 195.05 943.149 195.874V211.793H938.466V192.523H938.456Z" fill="#263238"/>
<path d="M986.647 199.463C986.742 205.955 990.859 208.631 995.68 208.631C999.113 208.631 1001.22 208.015 1002.99 207.28L1003.83 210.69C1002.15 211.46 999.217 212.373 995.026 212.373C986.915 212.373 982.039 206.968 982.039 199.046C982.039 191.044 986.752 184.795 994.455 184.795C1003.07 184.795 1005.31 192.354 1005.31 197.214C1005.31 198.222 1005.25 198.941 1005.15 199.467H986.647V199.463ZM1000.7 196.008C1000.74 192.98 999.455 188.235 994.078 188.235C989.177 188.235 987.094 192.667 986.712 196.008H1000.7Z" fill="#263238"/>
<path d="M1011.3 192.524C1011.3 189.769 1011.21 187.58 1011.08 185.391H1015.32L1015.59 189.734H1015.72C1017.02 187.252 1020.09 184.79 1024.45 184.79C1028.07 184.79 1033.75 186.974 1033.75 196.043V211.798H1028.97V196.574C1028.97 192.305 1027.36 188.731 1022.87 188.731C1019.72 188.731 1017.26 190.97 1016.4 193.66C1016.2 194.246 1016.07 195.1 1016.07 195.889V211.803H1011.29V192.524H1011.3Z" fill="#263238"/>
<path d="M1047.34 177.791V185.39H1054.24V189.029H1047.34V203.26C1047.34 206.551 1048.29 208.407 1050.97 208.407C1052.22 208.407 1053.12 208.253 1053.76 208.06L1053.98 211.708C1053.04 212.076 1051.55 212.368 1049.69 212.368C1047.48 212.368 1045.65 211.639 1044.51 210.333C1043.19 208.879 1042.65 206.546 1042.65 203.444V189.024H1038.56V185.386H1042.65V179.022L1047.34 177.791Z" fill="#263238"/>
</svg>